<svg width="720" height="313" viewBox="0 0 720 313" fill="none" xmlns="http://www.w3.org/2000/svg">
<g clip-path="url(#clip0_416_130)">
<rect width="720" height="313" fill="#F5F5F7"/>
<g filter="url(#filter0_d_416_130)">
<rect x="70" y="40" width="268" height="310" rx="8" fill="white" shape-rendering="crispEdges"/>
<rect x="94" y="64" width="149" height="19" rx="3" fill="#FFC4C4"/>
<rect x="94" y="126" width="220" height="19" rx="3" fill="#FFC4C4"/>
<rect x="94" y="157" width="101" height="19" rx="3" fill="#FFC4C4"/>
<rect x="94" y="188" width="198" height="19" rx="3" fill="#FFC4C4"/>
<rect x="94" y="219" width="198" height="19" rx="3" fill="#FFC4C4"/>
<rect x="94" y="95" width="149" height="19" rx="3" fill="#F5F5F7"/>
<rect x="94" y="250" width="220" height="19" rx="3" fill="#F5F5F7"/>
<rect x="94" y="281" width="220" height="19" rx="3" fill="#F5F5F7"/>
<rect x="94" y="312" width="220" height="19" rx="3" fill="#D7D7D7"/>
</g>
<g filter="url(#filter1_d_416_130)">
<rect x="382" y="40" width="268" height="310" rx="8" fill="white" shape-rendering="crispEdges"/>
<rect x="406" y="64" width="111" height="19" rx="3" fill="#B5F6C3"/>
<rect x="406" y="126" width="220" height="19" rx="3" fill="#B5F6C3"/>
<rect x="406" y="157" width="196" height="19" rx="3" fill="#B5F6C3"/>
<rect x="406" y="188" width="162" height="19" rx="3" fill="#B5F6C3"/>
<rect x="406" y="219" width="220" height="19" rx="3" fill="#B5F6C3"/>
<rect x="406" y="95" width="149" height="19" rx="3" fill="#F5F5F7"/>
<rect x="406" y="250" width="220" height="19" rx="3" fill="#F5F5F7"/>
<rect x="406" y="281" width="220" height="19" rx="3" fill="#F5F5F7"/>
<rect x="406" y="312" width="220" height="19" rx="3" fill="#D7D7D7"/>
</g>
</g>
<defs>
<filter id="filter0_d_416_130" x="57" y="27" width="294" height="348" filterUnits="userSpaceOnUse" color-interpolation-filters="sRGB">
<feFlood flood-opacity="0" result="BackgroundImageFix"/>
<feColorMatrix in="SourceAlpha" type="matrix" values="0 0 0 0 0 0 0 0 0 0 0 0 0 0 0 0 0 0 127 0" result="hardAlpha"/>
<feOffset/>
<feGaussianBlur stdDeviation="6.5"/>
<feComposite in2="hardAlpha" operator="out"/>
<feColorMatrix type="matrix" values="0 0 0 0 0.416178 0 0 0 0 0.416178 0 0 0 0 0.416178 0 0 0 0.15 0"/>
<feBlend mode="normal" in2="BackgroundImageFix" result="effect1_dropShadow_416_130"/>
<feBlend mode="normal" in="SourceGraphic" in2="effect1_dropShadow_416_130" result="shape"/>
</filter>
<filter id="filter1_d_416_130" x="369" y="27" width="294" height="348" filterUnits="userSpaceOnUse" color-interpolation-filters="sRGB">
<feFlood flood-opacity="0" result="BackgroundImageFix"/>
<feColorMatrix in="SourceAlpha" type="matrix" values="0 0 0 0 0 0 0 0 0 0 0 0 0 0 0 0 0 0 127 0" result="hardAlpha"/>
<feOffset/>
<feGaussianBlur stdDeviation="6.5"/>
<feComposite in2="hardAlpha" operator="out"/>
<feColorMatrix type="matrix" values="0 0 0 0 0.416178 0 0 0 0 0.416178 0 0 0 0 0.416178 0 0 0 0.15 0"/>
<feBlend mode="normal" in2="BackgroundImageFix" result="effect1_dropShadow_416_130"/>
<feBlend mode="normal" in="SourceGraphic" in2="effect1_dropShadow_416_130" result="shape"/>
</filter>
<clipPath id="clip0_416_130">
<rect width="720" height="313" fill="white"/>
</clipPath>
</defs>
</svg>
