<svg width="720" height="313" viewBox="0 0 720 313" fill="none" xmlns="http://www.w3.org/2000/svg">
<rect width="720" height="313" fill="#F5F5F7"/>
<path d="M130.243 119.007V192.198" stroke="black" stroke-width="3" stroke-linecap="round"/>
<path d="M102.796 123.581H179.038" stroke="black" stroke-width="3" stroke-linecap="round"/>
<path d="M98.2217 198.298C111.663 198.298 125.104 198.298 138.545 198.298C143.737 198.298 160.1 201.743 162.265 195.248" stroke="black" stroke-width="3" stroke-linecap="round"/>
<path d="M233.932 134.255C225.12 134.255 218.753 144.922 214.109 151.113C207.987 159.275 208.01 168.677 208.01 178.39C208.01 190.79 229.67 183.353 236.982 181.525" stroke="black" stroke-width="3" stroke-linecap="round"/>
<path d="M307.123 149.503C297.035 149.503 290.723 148.666 283.319 156.619C280.603 159.536 256.044 184.574 271.375 184.574C283.875 184.574 299.12 182.953 308.648 173.901C312.015 170.703 313.594 164.175 308.648 161.702" stroke="black" stroke-width="3" stroke-linecap="round"/>
<path d="M352.869 147.979C352.869 154.53 352.869 161.081 352.869 167.632C352.869 169.043 352.869 180.129 352.869 173.816C352.869 164.551 353.8 159.913 362.102 156.28C368.722 153.384 385.191 151.233 389.465 159.33C393.749 167.447 392.514 177.235 392.514 186.099" stroke="black" stroke-width="3" stroke-linecap="round"/>
<path d="M448.933 128.156C446.967 128.156 435.8 127.283 438.429 131.883C440.235 135.043 453.311 138.7 456.557 140.354C464.693 144.5 472.369 149.307 479.176 155.433C491.025 166.098 478.897 190.514 472.314 201.178C463.884 214.834 454.113 217.818 441.309 224.22" stroke="black" stroke-width="3" stroke-linecap="round"/>
</svg>
