<svg width="330" height="71" viewBox="0 0 330 71" fill="none" xmlns="http://www.w3.org/2000/svg">
<path d="M12.4577 40.4671C12.4577 30.3043 11.8228 37.9518 11.3892 44.1306C11.1861 47.0243 10.6038 75.4255 12.4577 62.4482" stroke="white" stroke-width="3" stroke-linecap="round"/>
<path d="M8.33624 33.598C7.6399 33.598 1.22598 35.1104 2.07773 35.4298C5.22939 36.6117 12.8543 31.886 15.5106 30.9267C22.33 28.4642 31.3171 25.6884 38.5603 28.1027C55.7258 33.8246 29.5497 56.8393 24.3641 61.2271C23.0206 62.3639 9.07189 74.7476 15.2053 66.5697" stroke="white" stroke-width="3" stroke-linecap="round"/>
<path d="M57.7939 51.4571C55.8255 51.1759 58.7906 47.9642 58.5571 47.0303C57.8257 44.1047 47.2382 55.797 50.6195 57.334C54.7861 59.2279 62.8659 46.0243 62.5259 48.4041C62.0818 51.5128 59.6104 62.758 64.663 61.0738" stroke="white" stroke-width="3" stroke-linecap="round"/>
<path d="M77.0273 30.8506V50.0841" stroke="white" stroke-width="3" stroke-linecap="round"/>
<path d="M75.6533 43.2148C80.0537 38.8144 83.8563 33.638 88.0177 29.4766" stroke="white" stroke-width="3" stroke-linecap="round"/>
<path d="M82.5225 39.0928C86.0403 42.6106 90.0398 48.4677 94.8868 50.0833" stroke="white" stroke-width="3" stroke-linecap="round"/>
<path d="M100.382 44.5878C103.943 44.5878 109.895 37.8714 105.725 37.8714C102.771 37.8714 97.5401 42.7463 97.1764 45.6564C96.8798 48.0293 109.901 40.1712 111.373 37.7188" stroke="white" stroke-width="3" stroke-linecap="round"/>
<path d="M122.363 25.3553C119.132 25.1534 119.415 23.805 120.379 27.7977C121.948 34.3005 122.363 40.6778 122.363 47.3364" stroke="white" stroke-width="3" stroke-linecap="round"/>
<path d="M118.242 37.7197C109.763 37.1898 129.038 31.4778 130.606 30.8506" stroke="white" stroke-width="3" stroke-linecap="round"/>
<path d="M141.597 33.5973C138.216 37.1899 139.858 39.4576 143.276 36.0397C148.643 30.6731 143.587 28.4096 138.849 33.6737C132.603 40.6136 137.259 42.7264 143.658 37.7188C150.01 32.7471 148.412 36.2913 152.587 40.4664" stroke="white" stroke-width="3" stroke-linecap="round"/>
<path d="M188.307 14.364C193.357 14.0483 191.186 17.6372 191.741 23.5228C192.013 26.3989 192.741 45.4024 191.054 33.5974" stroke="white" stroke-width="3" stroke-linecap="round"/>
<path d="M191.054 10.2429C187.049 10.2429 197.205 8.62166 198.229 8.25851C203.69 6.32061 208.9 3.83622 214.409 2" stroke="white" stroke-width="3" stroke-linecap="round"/>
<path d="M195.176 22.607C199.265 22.4497 202.314 20.6298 206.166 19.8594" stroke="white" stroke-width="3" stroke-linecap="round"/>
<path d="M214.409 26.7282C210.587 35.4642 230.085 22.1715 223.11 22.8357C219.303 23.1983 210.349 28.4278 212.272 33.292C215.358 41.0965 228.578 31.8247 232.269 29.4759" stroke="white" stroke-width="3" stroke-linecap="round"/>
<path d="M240.512 11.6167C239.819 10.0586 238.855 8.18931 239.443 6.42673C239.843 5.22532 240.472 14.3005 240.435 15.2039C240.209 20.7539 236.434 33.6419 240.512 37.7193" stroke="white" stroke-width="3" stroke-linecap="round"/>
<path d="M252.876 30.8505C256.562 34.1265 262.673 25.7682 260.814 22.6076C256.133 14.6494 237.267 42.2125 252.342 38.1012C261.634 35.5669 267.191 3.83203 264.554 3.83203C263.443 3.83203 260.548 26.7176 260.356 28.2555C259.747 33.1268 257.069 41.8124 263.867 39.0934" stroke="white" stroke-width="3" stroke-linecap="round"/>
<path d="M278.979 22.6071C279.57 36.7867 298.433 10.178 281.726 20.8517C278.188 23.1121 267.452 34.5769 276.536 37.1085C283.553 39.064 291.034 31.1588 295.465 26.7286" stroke="white" stroke-width="3" stroke-linecap="round"/>
<path d="M302.334 19.8599C298.754 18.294 299.586 21.0159 299.586 23.9813C299.586 26.784 297.573 34.7089 299.128 32.3769C305.608 22.6576 316.927 12.0627 328.436 14.3646" stroke="white" stroke-width="3" stroke-linecap="round"/>
</svg>
