<svg aria-hidden="true" data-automation-testing="extIconify24:assignment" font-size="24px" height="1em" role="img" viewbox="0 0 24 24" width="1em" xmlns="http://www.w3.org/2000/svg" xmlns:xlink="http://www.w3.org/1999/xlink"><path d="M13 20a4.243 4.243 0 116-6m-6 6H6a1 1 0 01-1-1V4a1 1 0 011-1h12c.552 0 1 .444 1 .997V14m-6 6a4.243 4.243 0 106-6m-7-8h5m-5 5h5m-3 7 .593 1.185a.5.5 0 00.876.034L18 15m-9-2H8a1 1 0 01-1-1v-1a1 1 0 011-1h1a1 1 0 011 1v1a1 1 0 01-1 1Zm1-7v1a1 1 0 01-1 1H8a1 1 0 01-1-1V6a1 1 0 011-1h1a1 1 0 011 1Z" fill="none" stroke="currentColor" stroke-linecap="round" stroke-linejoin="round"></path></svg>