<svg aria-hidden="true" data-automation-testing="extIconify24:basketball" font-size="24px" height="1em" role="img" viewbox="0 0 24 24" width="1em" xmlns="http://www.w3.org/2000/svg" xmlns:xlink="http://www.w3.org/1999/xlink"><path d="M12 4v16m0-16c1.924 0 3.649.614 5 1.665M12 4c-1.924 0-3.649.614-5 1.665M20 12h-5m5 0c0-2.633-1.15-4.895-3-6.335M20 12c0 2.462-1.183 4.71-3 6.19M12 20c1.872 0 3.619-.684 5-1.81M12 20c-2.01 0-3.803-.67-5.18-1.81M4 12h5m-5 0c0-2.633 1.15-4.895 3-6.335M4 12c0 2.547 1.076 4.746 2.82 6.19M9 12h6m-6 0c0-4-2-6.335-2-6.335M9 12c0 4-2.18 6.19-2.18 6.19M15 12c0-4 2-6.335 2-6.335M15 12c0 4 2 6.19 2 6.19" fill="none" stroke="currentColor" stroke-linecap="round" stroke-linejoin="round"></path></svg>