<svg aria-hidden="true" data-automation-testing="extIconify24:bell" font-size="24px" height="1em" role="img" viewbox="0 0 24 24" width="1em" xmlns="http://www.w3.org/2000/svg" xmlns:xlink="http://www.w3.org/1999/xlink"><path d="M12 4v1.143m0 0c-5.714 0-5.714 4.571-5.714 4.571s0 0 0 0v4.572c0 .429-.323 1.02-.725 1.59-.514.727-.038 1.838.853 1.838h3.3M12 5.143c5.714 0 5.714 4.571 5.714 4.571s0 0 0 0v4.572c0 .429.323 1.02.725 1.59.514.727.038 1.838-.853 1.838h-3.3m-4.572 0h4.572m-4.572 0S9.714 20 12 20s2.286-2.286 2.286-2.286" fill="none" stroke="currentColor" stroke-linecap="round" stroke-linejoin="round"></path></svg>