<svg aria-hidden="true" data-automation-testing="extIconify24:calendar" font-size="24px" height="1em" role="img" viewbox="0 0 24 24" width="1em" xmlns="http://www.w3.org/2000/svg" xmlns:xlink="http://www.w3.org/1999/xlink"><path d="M10.444 5.765H6a1 1 0 00-1 1V17a1 1 0 001 1h12a1 1 0 001-1V6.765a1 1 0 00-1-1h-4.444m-3.112 0V5m0 .765v1.53m0-1.53h3.112m0 0V5m0 .765v1.53m-.791 6.104v0a1.09 1.09 0 00-1.53 0v0a1.09 1.09 0 000 1.555v0a1.09 1.09 0 001.53 0v0a1.09 1.09 0 000-1.555Zm-5.418 0v0a1.09 1.09 0 000 1.555v0a1.09 1.09 0 001.529 0v0a1.09 1.09 0 000-1.555v0a1.09 1.09 0 00-1.53 0Zm9.306-3.824v0a1.09 1.09 0 00-1.529 0v0a1.09 1.09 0 000 1.556v0a1.09 1.09 0 001.53 0v0a1.09 1.09 0 000-1.556Zm-3.888 0v0a1.09 1.09 0 00-1.53 0v0a1.09 1.09 0 000 1.556v0a1.09 1.09 0 001.53 0v0a1.09 1.09 0 000-1.556Zm-3.89 1.556v0a1.09 1.09 0 01-1.528 0v0a1.09 1.09 0 010-1.556v0a1.09 1.09 0 011.529 0v0a1.09 1.09 0 010 1.556Z" fill="none" stroke="currentColor" stroke-linecap="round"></path></svg>