<svg aria-hidden="true" data-automation-testing="extIconify24:calendar-clock" font-size="24px" height="1em" role="img" viewbox="0 0 24 24" width="1em" xmlns="http://www.w3.org/2000/svg" xmlns:xlink="http://www.w3.org/1999/xlink"><g fill="none"><circle cx="17.5" cy="16.5" r="3" stroke="currentColor"></circle><path clip-rule="evenodd" d="M10.944 5a.5.5 0 10-1 0v.265H6a1.5 1.5 0 00-1.5 1.5V17A1.5 1.5 0 006 18.5h8.627a3.487 3.487 0 01-.482-1H6a.5.5 0 01-.5-.5V6.765a.5.5 0 01.5-.5h3.944v1.03a.5.5 0 101 0v-1.03h2.112v1.03a.5.5 0 101 0v-1.03H18a.5.5 0 01.5.5v6.38c.361.107.698.272 1 .482V6.765a1.5 1.5 0 00-1.5-1.5h-3.944V5a.5.5 0 00-1 0v.265h-2.112V5ZM7.697 9.932a.59.59 0 11.828.842.59.59 0 01-.828-.842Zm1.53-.713a1.59 1.59 0 10-2.231 2.268 1.59 1.59 0 002.23-2.268Zm2.359.713a.59.59 0 11.828.842.59.59 0 01-.828-.842Zm1.53-.713a1.59 1.59 0 10-2.231 2.268 1.59 1.59 0 002.23-2.268Zm2.359.713a.59.59 0 11.828.842.59.59 0 01-.828-.842Zm1.529-.713a1.59 1.59 0 10-2.23 2.268 1.59 1.59 0 002.23-2.268Zm-9.307 4.536a.59.59 0 11.828.843.59.59 0 01-.828-.843Zm1.53-.713a1.59 1.59 0 10-2.231 2.269 1.59 1.59 0 002.23-2.269Zm2.359.713a.59.59 0 11.828.843.59.59 0 01-.828-.843Zm1.53-.713a1.59 1.59 0 10-2.231 2.269 1.59 1.59 0 002.23-2.269Z" fill="currentColor" fill-rule="evenodd"></path><path d="M17.5 15v1.5l1 1" stroke="currentColor" stroke-linecap="round"></path></g></svg>