<svg aria-hidden="true" data-automation-testing="extIconify24:exit" font-size="24px" height="1em" role="img" viewbox="0 0 24 25" width="0.96em" xmlns="http://www.w3.org/2000/svg" xmlns:xlink="http://www.w3.org/1999/xlink"><path d="M18 4.14v12.341a1 1 0 01-.606.92l-5 2.142A1 1 0 0111 18.624v-1.483m7-13H8a1 1 0 00-1 1v2m11-3-6.394 2.74A1 1 0 0011 7.8v9.34m0 0H8a1 1 0 01-1-1v-1m2-4H3m6 0-2-2m2 2-2 2m6.5.5v0a.707.707 0 010-1v0a.707.707 0 011 0v0a.707.707 0 010 1v0a.707.707 0 01-1 0Z" fill="none" stroke="currentColor" stroke-linecap="round" stroke-linejoin="round"></path></svg>