<svg aria-hidden="true" data-automation-testing="extIconify24:eye-closed" font-size="24px" height="1em" role="img" viewbox="0 0 24 25" width="0.96em" xmlns="http://www.w3.org/2000/svg" xmlns:xlink="http://www.w3.org/1999/xlink"><path d="m20 5.14-3.456 3.457M5 20.14l3.736-3.736m5.826-5.825a3 3 0 10-4.124 4.124m4.124-4.124-4.124 4.123m4.124-4.123 1.982-1.982m-6.106 6.105-1.702 1.702m0 0C5.724 15.014 4 12.14 4 12.14s3-5 8-5c1.785 0 3.314.637 4.544 1.457m-6.106 8.378A7.477 7.477 0 0012 17.14c5 0 8-5 8-5s-.705-1.174-2-2.384m-3.054 2.954a3.004 3.004 0 01-2.31 2.363" fill="none" stroke="currentColor" stroke-linecap="round" stroke-linejoin="round"></path></svg>