<svg aria-hidden="true" data-automation-testing="extIconify24:forms" font-size="24px" height="1em" role="img" viewbox="0 0 24 24" width="1em" xmlns="http://www.w3.org/2000/svg" xmlns:xlink="http://www.w3.org/1999/xlink"><path d="M9.273 6.133V5a1 1 0 011-1H17a1 1 0 011 1v9.733a1 1 0 01-1 1h-.09m-8.728-4.8h4.364m-4.364 2.134h4.364M8.181 15.2h4.364m-4.364 2.133h4.364m2.181-8.066V19a1 1 0 01-1 1H7a1 1 0 01-1-1V9.267a1 1 0 011-1h6.727a1 1 0 011 1Z" fill="none" stroke="currentColor" stroke-linecap="round" stroke-linejoin="round"></path></svg>