<svg aria-hidden="true" data-automation-testing="extIconify24:globe" font-size="24px" height="1em" role="img" viewbox="0 0 24 24" width="1em" xmlns="http://www.w3.org/2000/svg" xmlns:xlink="http://www.w3.org/1999/xlink"><path d="M12 4s5 1.755 5 8m-5-8s-5 1.755-5 8m5-8v4m0-4a7.997 7.997 0 016.93 4M12 4a7.997 7.997 0 00-6.93 4M4 12h3m-3 0c0 1.457.39 2.823 1.07 4M4 12c0-1.457.39-2.823 1.07-4M12 20s5-1.755 5-8m-5 8s-5-1.755-5-8m5 8v-4m0 4a7.997 7.997 0 006.93-4M12 20a7.997 7.997 0 01-6.93-4M20 12h-3m3 0c0 1.457-.39 2.823-1.07 4M20 12c0-1.457-.39-2.823-1.07-4M17 12H7m5-4v8m0-8h6.93M12 8H5.07M12 16h6.93M12 16H5.07" fill="none" stroke="currentColor" stroke-linecap="round" stroke-linejoin="round"></path></svg>