<svg aria-hidden="true" data-automation-testing="extIconify24:graph-1" font-size="24px" height="1em" role="img" viewbox="0 0 24 24" width="1em" xmlns="http://www.w3.org/2000/svg" xmlns:xlink="http://www.w3.org/1999/xlink"><path d="M4 18h16M16 8h1a1 1 0 011 1v6a1 1 0 01-1 1h-1a1 1 0 01-1-1V9a1 1 0 011-1Zm-3 7V7a1 1 0 00-1-1h-1a1 1 0 00-1 1v8a1 1 0 001 1h1a1 1 0 001-1Zm-7-4h1a1 1 0 011 1v3a1 1 0 01-1 1H6a1 1 0 01-1-1v-3a1 1 0 011-1Z" fill="none" stroke="currentColor" stroke-linecap="round"></path></svg>