<svg aria-hidden="true" data-automation-testing="extIconify24:house" font-size="24px" height="1em" role="img" viewbox="0 0 24 24" width="1em" xmlns="http://www.w3.org/2000/svg" xmlns:xlink="http://www.w3.org/1999/xlink"><path d="m14 6-1.293-1.293a1 1 0 00-1.414 0L5 11a.586.586 0 00.414 1c.324 0 .586.262.586.586V18a1 1 0 001 1h2a1 1 0 001-1v-3a1 1 0 011-1h2a1 1 0 011 1v3a1 1 0 001 1h2a1 1 0 001-1v-5.414c0-.324.262-.586.586-.586A.586.586 0 0019 11l-1-1m-4-4h3a1 1 0 011 1v3m-4-4 4 4" fill="none" stroke="currentColor"></path></svg>