<svg aria-hidden="true" data-automation-testing="extIconify24:image" font-size="24px" height="1em" role="img" viewbox="0 0 24 24" width="1em" xmlns="http://www.w3.org/2000/svg" xmlns:xlink="http://www.w3.org/1999/xlink"><path d="M4 17V7a1 1 0 011-1h14a1 1 0 011 1v9M4 17v0a1 1 0 001 1h14a1 1 0 001-1v-1M4 17l3.154-2.366a1 1 0 011.432.246l.797 1.194a1 1 0 001.472.214l4.443-3.703a1 1 0 011.348.06L20 16m-5-8v0a1.414 1.414 0 012 0v0a1.414 1.414 0 010 2v0a1.414 1.414 0 01-2 0v0a1.414 1.414 0 010-2Z" fill="none" stroke="currentColor" stroke-linecap="round"></path></svg>