<svg aria-hidden="true" data-automation-testing="extIconify24:message-arrows" font-size="24px" height="1em" role="img" viewbox="0 0 24 24" width="1em" xmlns="http://www.w3.org/2000/svg" xmlns:xlink="http://www.w3.org/1999/xlink"><path d="m17 10-2-2m2 2-2 2m2-2H8m-1 4 2-2m-2 2 2 2m-2-2h9m-9.5 7 3.22-2.76a1 1 0 01.65-.24H19a1 1 0 001-1V7a1 1 0 00-1-1H5a1 1 0 00-1 1v10a1 1 0 001 1h.82a1 1 0 01.986 1.164L6.5 21Z" fill="none" stroke="currentColor" stroke-linecap="round" stroke-linejoin="round"></path></svg>