<svg aria-hidden="true" data-automation-testing="extIconify24:news-2" font-size="24px" height="1em" role="img" viewbox="0 0 24 24" width="1em" xmlns="http://www.w3.org/2000/svg" xmlns:xlink="http://www.w3.org/1999/xlink"><path d="M7 20h11a1 1 0 001-1V5a1 1 0 00-1-1H8a1 1 0 00-1 1v5m0 10V10m0 10H6a1 1 0 01-1-1v-8a1 1 0 011-1h1m8-3h2m-2 2h2m-2 2h2m-8 2h8m-8 2h8m-8 2h8m-4-9v2a1 1 0 01-1 1h-2a1 1 0 01-1-1V8a1 1 0 011-1h2a1 1 0 011 1Z" fill="none" stroke="currentColor" stroke-linecap="round" stroke-linejoin="round"></path></svg>