<svg aria-hidden="true" data-automation-testing="extIconify24:offline" font-size="24px" height="1em" role="img" viewbox="0 0 24 24" width="1em" xmlns="http://www.w3.org/2000/svg" xmlns:xlink="http://www.w3.org/1999/xlink"><g fill="none" stroke="currentColor"><path d="M16 8c-.34-.5-1.532-1.5-3.574-1.5-2.043 0-2.982.92-3.575 1.5-.629.616-1.327 1.801-1.5 3.16a.583.583 0 01-.35.46c-1.082.465-2.744 1.708-1.635 3.88.388.76 1.239 1 2.464 1"></path><path d="M10.5 16.49h6.229c1.2 0 2.032-.239 2.412-1 1.085-2.168-.537-3.412-1.597-3.877a.584.584 0 01-.346-.46 5.498 5.498 0 00-.122-.653M18.5 6 6 18.5" stroke-linecap="round"></path></g></svg>