<svg aria-hidden="true" data-automation-testing="extIconify24:phone" font-size="24px" height="1em" role="img" viewbox="0 0 24 24" width="1em" xmlns="http://www.w3.org/2000/svg" xmlns:xlink="http://www.w3.org/1999/xlink"><path d="M9 15c-4.307-4.307-4.322-7.388-4.125-8.521.053-.308.303-.524.606-.6l2.74-.684a1 1 0 011.138.522l1.319 2.638a1 1 0 01-.188 1.155L10 10s0 0 0 0-1 1 1 3 3 1 3 1 0 0 0 0l.49-.49a1 1 0 011.155-.188l2.637 1.32a1 1 0 01.523 1.136l-.685 2.74c-.076.304-.29.554-.599.607-1.134.196-4.214.182-8.521-4.125Z" fill="none" stroke="currentColor" stroke-linecap="round" stroke-linejoin="round"></path></svg>