<svg aria-hidden="true" data-automation-testing="extIconify24:pizza" font-size="24px" height="1em" role="img" viewbox="0 0 24 24" width="1em" xmlns="http://www.w3.org/2000/svg" xmlns:xlink="http://www.w3.org/1999/xlink"><path d="M11.5 8 4 18l13.5-2.5m-6-7.5 1.2-1.6a.913.913 0 01.8-.379c3.531.3 6.179 3.754 6.473 8.16.032.475-.31.886-.777.98L17.5 15.5m-6-7.5c3.5 0 6 4.125 6 7.5m-3.5-2v0a.5.5 0 01-.5.5v0a.5.5 0 01-.5-.5v0a.5.5 0 01.5-.5v0a.5.5 0 01.5.5ZM12.5 11v0a.5.5 0 00.5-.5v0a.5.5 0 00-.5-.5v0a.5.5 0 00-.5.5v0a.5.5 0 00.5.5ZM11 13.5v0a.5.5 0 01-.5.5v0a.5.5 0 01-.5-.5v0a.5.5 0 01.5-.5v0a.5.5 0 01.5.5Z" fill="none" stroke="currentColor" stroke-linecap="round" stroke-linejoin="round"></path></svg>