<svg aria-hidden="true" data-automation-testing="extIconify24:school" font-size="24px" height="1em" role="img" viewbox="0 0 24 24" width="1em" xmlns="http://www.w3.org/2000/svg" xmlns:xlink="http://www.w3.org/1999/xlink"><path d="M4 8h2.65a1 1 0 00.624-.22l4.101-3.28a1 1 0 011.25 0l4.101 3.28a1 1 0 00.625.22H20M4 18h16M5 10v6m14-6v6M9 11v4m3-4v4m3-4v4m-2.5-6.5v0a.707.707 0 01-1 0v0a.707.707 0 010-1v0a.707.707 0 011 0v0a.707.707 0 010 1Z" fill="none" stroke="currentColor" stroke-linecap="round" stroke-linejoin="round"></path></svg>