<svg aria-hidden="true" data-automation-testing="extIconify24:shishkebab" font-size="24px" height="1em" role="img" viewbox="0 0 24 24" width="1em" xmlns="http://www.w3.org/2000/svg" xmlns:xlink="http://www.w3.org/1999/xlink"><g fill="none"><path d="M16.5 11.5a.707.707 0 11-1 1 .707.707 0 011-1Zm-5 1a.707.707 0 101-1 .707.707 0 00-1 1Zm-3-1a.707.707 0 11-1 1 .707.707 0 011-1Z" fill="currentColor"></path><path d="M16.5 11.5a.707.707 0 11-1 1 .707.707 0 011-1Zm-5 1a.707.707 0 101-1 .707.707 0 00-1 1Zm-3-1a.707.707 0 11-1 1 .707.707 0 011-1Z" stroke="currentColor" stroke-linecap="round" stroke-linejoin="round"></path></g></svg>