<svg aria-hidden="true" data-automation-testing="extIconify24:translation" font-size="24px" height="1em" role="img" viewbox="0 0 24 24" width="1em" xmlns="http://www.w3.org/2000/svg" xmlns:xlink="http://www.w3.org/1999/xlink"><path d="M9 5v2m0 0H7m2 0h2M5 7h2m6 0h-2M7 7s0 3 2 4m0 0c2-1 2-4 2-4m-2 4c-1.5 1.5-4 1.5-4 1.5M9 11c1 1 3 1 3 1m-1 7 1.556-3.5M19 19l-1.556-3.5m-4.888 0 2.216-4.986a.25.25 0 01.457 0l2.215 4.986m-4.888 0h4.888" fill="none" stroke="currentColor" stroke-linecap="round" stroke-linejoin="round"></path></svg>