<svg aria-hidden="true" data-automation-testing="extIconify24:user-two-plus" font-size="24px" height="1em" role="img" viewbox="0 0 24 24" width="1em" xmlns="http://www.w3.org/2000/svg" xmlns:xlink="http://www.w3.org/1999/xlink"><path d="M14 5c1.884-.514 3.966 1.048 4 3 .025 1.408-.691 2.481-2 3m0 2c2 1 3 3 3 5m1-16v2m0 0v2m0-2h2m-2 0h-2M9.896 5a4 4 0 100 8 4 4 0 000-8Zm-6 15c2 1 6 1 6 1v0s4 0 6-1c1.892-.946.52-4.797-1.624-5.848-.234-.115-.505-.087-.745.015-.67.284-2.155.833-3.63.833-1.476 0-2.961-.549-3.632-.833-.24-.102-.51-.13-.745-.015-2.144 1.05-3.515 4.902-1.624 5.848Z" fill="none" stroke="currentColor" stroke-linecap="round" stroke-linejoin="round"></path></svg>