<svg aria-hidden="true" data-automation-testing="extIconify24:user" font-size="24px" height="1em" role="img" viewbox="0 0 24 24" width="1em" xmlns="http://www.w3.org/2000/svg" xmlns:xlink="http://www.w3.org/1999/xlink"><path d="M8 8a4 4 0 118 0 4 4 0 01-8 0Zm4 6c-1.476 0-2.96-.549-3.63-.834-.24-.101-.512-.129-.746-.014C5.48 14.202 4.108 18.054 6 19c2 1 6 1 6 1s4 0 6-1c1.892-.946.52-4.797-1.624-5.848-.234-.115-.506-.087-.745.014-.67.285-2.155.834-3.631.834Z" fill="none" stroke="currentColor" stroke-linecap="round" stroke-linejoin="round"></path></svg>