<svg width="32" height="32" viewBox="0 0 32 32" fill="none" xmlns="http://www.w3.org/2000/svg">
<path d="M13.9922 12.2422C13.8984 12.2422 13.8516 12.1875 13.8359 12.1016C13.5703 10.8516 13.5859 10.8047 12.2734 10.5391C12.1875 10.5234 12.125 10.4688 12.125 10.3828C12.125 10.2891 12.1875 10.2344 12.2734 10.2188C13.5859 9.95312 13.5703 9.90625 13.8359 8.66406C13.8516 8.57812 13.8984 8.51562 13.9922 8.51562C14.0859 8.51562 14.1328 8.57812 14.1484 8.66406C14.4141 9.90625 14.3984 9.95312 15.7109 10.2188C15.7969 10.2344 15.8594 10.2891 15.8594 10.3828C15.8594 10.4688 15.7969 10.5234 15.7109 10.5391C14.3984 10.8047 14.4141 10.8516 14.1484 12.1016C14.1328 12.1875 14.0859 12.2422 13.9922 12.2422ZM20.4453 15C20.3359 15 20.2734 14.9297 20.25 14.8281C19.9844 13.3438 19.9766 13.25 18.4062 12.9766C18.3047 12.9609 18.2266 12.8906 18.2266 12.7812C18.2266 12.6719 18.3047 12.6094 18.4062 12.5859C19.9766 12.3203 19.9844 12.2266 20.25 10.7422C20.2734 10.6406 20.3359 10.5625 20.4453 10.5625C20.5547 10.5625 20.6172 10.6406 20.6406 10.7422C20.9062 12.2266 20.9141 12.3203 22.4844 12.5859C22.5938 12.6094 22.6641 12.6719 22.6641 12.7812C22.6641 12.8906 22.5938 12.9609 22.4844 12.9766C20.9141 13.25 20.9062 13.3438 20.6406 14.8281C20.6172 14.9297 20.5547 15 20.4453 15ZM9.71094 17.2422C9.60156 17.2422 9.53906 17.1641 9.51562 17.0625C9.25 15.5781 9.24219 15.4844 7.67188 15.2188C7.57031 15.1953 7.49219 15.1328 7.49219 15.0234C7.49219 14.9141 7.57031 14.8438 7.67188 14.8281C9.24219 14.5547 9.25 14.4609 9.51562 12.9766C9.53906 12.875 9.60156 12.8047 9.71094 12.8047C9.82031 12.8047 9.88281 12.875 9.90625 12.9766C10.1719 14.4609 10.1797 14.5547 11.75 14.8281C11.8516 14.8438 11.9297 14.9141 11.9297 15.0234C11.9297 15.1328 11.8516 15.1953 11.75 15.2188C10.1797 15.4844 10.1719 15.5781 9.90625 17.0625C9.88281 17.1641 9.82031 17.2422 9.71094 17.2422ZM23.0547 23.9219L15.625 16.4766C15.3047 16.1484 15.2969 15.6094 15.625 15.2656C15.9375 14.9375 16.5 14.9375 16.8281 15.2656L24.2578 22.7188C24.5781 23.0469 24.5781 23.5781 24.2578 23.9219C23.9453 24.2578 23.3828 24.2578 23.0547 23.9219ZM18.5078 18.5547L18.8984 18.1797L16.6016 15.8828C16.4531 15.7344 16.2891 15.7031 16.1719 15.8281C16.0312 15.9609 16.0781 16.1172 16.2188 16.2578L18.5078 18.5547ZM13.4219 24.0469C13.2734 24.0469 13.1719 23.9453 13.1562 23.8125C12.875 21.7266 12.8125 21.7266 10.6484 21.3125C10.5156 21.2812 10.4141 21.1953 10.4141 21.0469C10.4141 20.8984 10.5156 20.7969 10.6484 20.7812C12.8125 20.4766 12.8828 20.4062 13.1562 18.2891C13.1719 18.1484 13.2734 18.0469 13.4219 18.0469C13.5625 18.0469 13.6641 18.1484 13.6875 18.2969C13.9375 20.3828 14.0547 20.375 16.1953 20.7812C16.3281 20.8047 16.4297 20.8984 16.4297 21.0469C16.4297 21.2031 16.3281 21.2812 16.1641 21.3125C14.0391 21.6562 13.9375 21.7109 13.6875 23.7969C13.6641 23.9453 13.5625 24.0469 13.4219 24.0469Z" fill="#9E9E9E"/>
</svg>
