<svg width="16" height="17" viewBox="0 0 16 17" fill="none" xmlns="http://www.w3.org/2000/svg">
<path d="M13.8438 15.4609C13.8438 15.8672 13.5703 16.1641 13.1719 16.1641H2.6875C2.28125 16.1641 2 15.8672 2 15.4609C2 15.0547 2.28125 14.7656 2.6875 14.7656H7.85156C7.6875 14.75 7.53125 14.6641 7.39844 14.5312L2.21875 9.33594C2.07031 9.17969 2 9.01562 2 8.82812C2 8.44531 2.28125 8.14844 2.67188 8.14844C2.85938 8.14844 3.04688 8.21094 3.16406 8.33594L4.94531 10.0859L7.28125 12.6484L7.22656 10.9844V0.6875C7.22656 0.289062 7.51562 0 7.92188 0C8.32812 0 8.61719 0.289062 8.61719 0.6875V10.9844L8.5625 12.6562L10.8984 10.0859L12.6797 8.33594C12.8047 8.21094 12.9844 8.14844 13.1719 8.14844C13.5625 8.14844 13.8438 8.44531 13.8438 8.82812C13.8438 9.01562 13.7812 9.17969 13.6328 9.33594L8.44531 14.5312C8.3125 14.6641 8.16406 14.75 8 14.7656H13.1719C13.5703 14.7656 13.8438 15.0547 13.8438 15.4609Z" fill="white"/>
</svg>
