<svg width="480" height="480" viewBox="0 0 480 480" fill="none" xmlns="http://www.w3.org/2000/svg">
<g id="tile">
<rect width="480" height="480" fill="#FF5454"/>
<g id="Group 8" opacity="0.4">
<path id="Vector 23" d="M132.238 339.269L135.415 336.811L140.651 343.579C140.989 344.016 140.909 344.644 140.472 344.982L138.086 346.828C137.212 347.504 135.956 347.344 135.28 346.47L131.88 342.075C131.204 341.201 131.364 339.945 132.238 339.269Z" fill="#C6D3DD" stroke="#ABBCC9"/>
<g id="Vector 25">
<path d="M245.876 177.055C251.348 173.717 291.046 177.015 291.046 177.015C291.046 177.015 303.872 168.308 317.632 160.474C330.848 152.949 344.972 146.29 347.224 146.082C350.505 145.78 352.373 147.485 353.172 148.484C353.474 148.862 353.364 149.387 352.982 149.683L351.024 151.197C350.151 151.873 349.991 153.129 350.666 154.003L365.547 173.236C366.223 174.109 366.063 175.366 365.189 176.042L360.161 179.932C359.667 180.314 358.943 180.159 358.632 179.618C357.036 176.85 352.345 169.434 346.982 167.751C339.015 165.25 333.671 169.054 326.692 174.498C319.819 179.86 315.005 182.904 313.424 191.477C312.281 197.677 316.727 206.155 318.766 209.627C319.297 210.53 319.097 211.703 318.268 212.344L260.107 257.343L237.613 274.747C236.739 275.423 235.483 275.262 234.807 274.389L208.746 240.705L208.736 240.692C208.598 240.51 203.687 234.005 200.852 229.345C198.73 225.856 196.206 220.745 195.03 218.305C194.633 217.484 194.849 216.509 195.554 215.93C198.558 213.46 206.867 206.652 216.101 199.308C227.244 190.446 239.734 180.803 245.876 177.055Z" fill="#9C1717"/>
<path d="M218.021 289.905L234.169 277.411C235.043 276.735 235.203 275.479 234.527 274.605L209.683 242.495C209.007 241.621 207.751 241.461 206.878 242.137L116.353 312.175C115.682 312.694 115.412 313.58 115.678 314.385L116.793 317.758C117.009 318.413 117.809 318.657 118.354 318.235L119.525 317.329C119.962 316.991 120.59 317.071 120.928 317.508L134.433 334.963C134.771 335.4 134.691 336.028 134.254 336.366L133.393 337.033C132.927 337.393 132.875 338.07 133.311 338.465C134.653 339.684 137.474 341.89 139.873 341.417C141.197 341.156 164.252 325.706 171.035 321.147C172.033 320.477 172.215 319.085 171.507 318.115C169.693 315.629 166.751 310.948 166.754 306.746C166.759 298.429 173.074 293.8 179.652 288.711C187.211 282.862 191.914 278.65 201.188 280.104C206.968 281.01 212.67 286.782 215.148 289.595C215.879 290.426 217.145 290.583 218.021 289.905Z" fill="#9C1717"/>
<path d="M216.101 199.308C206.867 206.652 198.558 213.46 195.554 215.93C194.849 216.509 194.633 217.484 195.03 218.305C196.206 220.745 198.73 225.856 200.852 229.345C203.687 234.005 208.598 240.51 208.736 240.692C208.741 240.698 208.742 240.699 208.746 240.705L234.807 274.389C235.483 275.262 236.739 275.423 237.613 274.747L260.107 257.343M216.101 199.308C227.244 190.446 239.734 180.803 245.876 177.055C251.348 173.717 291.046 177.015 291.046 177.015C291.046 177.015 303.872 168.308 317.632 160.474C330.848 152.949 344.972 146.29 347.223 146.082C350.505 145.78 352.373 147.485 353.172 148.484C353.474 148.862 353.364 149.387 352.982 149.683L351.024 151.197C350.151 151.873 349.991 153.129 350.666 154.003L365.547 173.236C366.223 174.109 366.063 175.366 365.189 176.042L360.161 179.932C359.667 180.314 358.943 180.159 358.632 179.618C357.036 176.85 352.345 169.434 346.982 167.751C339.015 165.25 333.671 169.054 326.692 174.498C319.819 179.86 315.005 182.904 313.424 191.477C312.281 197.677 316.727 206.155 318.766 209.627C319.297 210.53 319.097 211.703 318.268 212.344L260.107 257.343M216.101 199.308C216.101 199.308 228.65 217.614 237.238 228.941C245.841 240.288 260.107 257.343 260.107 257.343M201.188 280.104C206.968 281.01 212.67 286.782 215.148 289.595C215.879 290.426 217.145 290.583 218.021 289.905L234.169 277.411C235.043 276.735 235.203 275.479 234.527 274.605L209.683 242.495C209.007 241.621 207.751 241.461 206.878 242.137L116.353 312.175C115.682 312.694 115.412 313.58 115.678 314.385L116.793 317.758C117.009 318.413 117.809 318.657 118.354 318.235L119.525 317.329C119.962 316.991 120.59 317.071 120.928 317.508L134.433 334.963C134.771 335.4 134.691 336.028 134.254 336.366L133.393 337.033C132.927 337.393 132.875 338.07 133.311 338.465C134.653 339.684 137.474 341.89 139.873 341.417C141.197 341.156 164.252 325.706 171.035 321.147C172.033 320.477 172.215 319.085 171.507 318.115C169.693 315.629 166.751 310.948 166.754 306.746C166.759 298.429 173.074 293.8 179.652 288.711C187.211 282.862 191.914 278.65 201.188 280.104Z" stroke="#760909"/>
</g>
<path id="Vector 26" d="M361.045 158.739L354.254 149.963C353.916 149.526 353.288 149.446 352.851 149.784L351.025 151.197C350.151 151.873 349.991 153.129 350.667 154.003L357.457 162.779L360.866 160.142C361.302 159.804 361.383 159.176 361.045 158.739Z" fill="#F5F5F5" stroke="#760909"/>
<path id="Vector 27" d="M243.41 182.544L223.992 197.567C223.118 198.243 222.961 199.497 223.637 200.371L238.084 219.044C238.76 219.918 240.016 220.078 240.89 219.402L285.83 184.632C286.267 184.294 286.347 183.666 286.009 183.229L284.066 180.719C283.899 180.503 283.66 180.365 283.388 180.339C279.541 179.962 250.208 177.284 243.41 182.544Z" fill="#D5FCFF" stroke="#760909"/>
<path id="Vector 28" d="M213.251 235.415L225.17 226.194C225.994 225.556 226.19 224.391 225.62 223.518L212.064 202.768L197.443 214.527L210.337 234.903C210.967 235.899 212.318 236.137 213.251 235.415Z" fill="#D5FCFF" stroke="#760909"/>
<g id="Group 7">
<circle id="Ellipse 14" cx="195.501" cy="306.881" r="21.0919" transform="rotate(-37.7291 195.501 306.881)" fill="black" stroke="black"/>
<circle id="Ellipse 16" cx="195.493" cy="306.871" r="11.1809" transform="rotate(-37.7291 195.493 306.871)" fill="#C6D3DD" stroke="#9BB3C6"/>
<circle id="Ellipse 18" cx="195.493" cy="306.871" r="3.39362" transform="rotate(-37.7291 195.493 306.871)" fill="#C6D3DD" stroke="#9BB3C6"/>
<g id="Rotated Instances">
<g id="Ellipse 18_2">
<circle id="Ellipse 18_3" cx="191.376" cy="301.708" r="1.03099" transform="rotate(-37.7291 191.376 301.708)" fill="black" stroke="black"/>
</g>
<g id="Rotated Instance 2">
<circle id="Ellipse 18_4" cx="195.117" cy="300.366" r="1.03099" transform="rotate(-1.72906 195.117 300.366)" fill="black" stroke="black"/>
</g>
<g id="Rotated Instance 3">
<circle id="Ellipse 18_5" cx="198.932" cy="301.48" r="1.03099" transform="rotate(34.2709 198.932 301.48)" fill="black" stroke="black"/>
</g>
<g id="Rotated Instance 4">
<circle id="Ellipse 18_6" cx="201.364" cy="304.623" r="1.03099" transform="rotate(70.2709 201.364 304.623)" fill="black" stroke="black"/>
</g>
<g id="Rotated Instance 5">
<circle id="Ellipse 18_7" cx="201.484" cy="308.595" r="1.03099" transform="rotate(106.271 201.484 308.595)" fill="black" stroke="black"/>
</g>
<g id="Rotated Instance 6">
<circle id="Ellipse 18_8" cx="199.246" cy="311.879" r="1.03099" transform="rotate(142.271 199.246 311.879)" fill="black" stroke="black"/>
</g>
<g id="Rotated Instance 7">
<circle id="Ellipse 18_9" cx="195.505" cy="313.221" r="1.03099" transform="rotate(178.271 195.505 313.221)" fill="black" stroke="black"/>
</g>
<g id="Rotated Instance 8">
<circle id="Ellipse 18_10" cx="191.69" cy="312.108" r="1.03099" transform="rotate(-145.729 191.69 312.108)" fill="black" stroke="black"/>
</g>
<g id="Rotated Instance 9">
<circle id="Ellipse 18_11" cx="189.258" cy="308.964" r="1.03099" transform="rotate(-109.729 189.258 308.964)" fill="black" stroke="black"/>
</g>
<g id="Rotated Instance 10">
<circle id="Ellipse 18_12" cx="189.138" cy="304.992" r="1.03099" transform="rotate(-73.7291 189.138 304.992)" fill="black" stroke="black"/>
</g>
</g>
</g>
<circle id="Ellipse 14_2" cx="339.958" cy="195.115" r="21.5919" transform="rotate(-37.7291 339.958 195.115)" fill="black"/>
<circle id="Ellipse 16_2" cx="339.951" cy="195.105" r="11.1809" transform="rotate(-37.7291 339.951 195.105)" fill="#C6D3DD" stroke="#9BB3C6"/>
<circle id="Ellipse 18_13" cx="339.951" cy="195.105" r="3.39362" transform="rotate(-37.7291 339.951 195.105)" fill="#C6D3DD" stroke="#9BB3C6"/>
<g id="Rotated Instances_2">
<g id="Ellipse 18_14">
<circle id="Ellipse 18_15" cx="335.833" cy="189.941" r="1.03099" transform="rotate(-37.7291 335.833 189.941)" fill="black" stroke="black"/>
</g>
<g id="Rotated Instance 2_2">
<circle id="Ellipse 18_16" cx="339.574" cy="188.6" r="1.03099" transform="rotate(-1.72906 339.574 188.6)" fill="black" stroke="black"/>
</g>
<g id="Rotated Instance 3_2">
<circle id="Ellipse 18_17" cx="343.389" cy="189.713" r="1.03099" transform="rotate(34.2709 343.389 189.713)" fill="black" stroke="black"/>
</g>
<g id="Rotated Instance 4_2">
<circle id="Ellipse 18_18" cx="345.821" cy="192.856" r="1.03099" transform="rotate(70.2709 345.821 192.856)" fill="black" stroke="black"/>
</g>
<g id="Rotated Instance 5_2">
<circle id="Ellipse 18_19" cx="345.941" cy="196.829" r="1.03099" transform="rotate(106.271 345.941 196.829)" fill="black" stroke="black"/>
</g>
<g id="Rotated Instance 6_2">
<circle id="Ellipse 18_20" cx="343.703" cy="200.113" r="1.03099" transform="rotate(142.271 343.703 200.113)" fill="black" stroke="black"/>
</g>
<g id="Rotated Instance 7_2">
<circle id="Ellipse 18_21" cx="339.962" cy="201.454" r="1.03099" transform="rotate(178.271 339.962 201.454)" fill="black" stroke="black"/>
</g>
<g id="Rotated Instance 8_2">
<circle id="Ellipse 18_22" cx="336.147" cy="200.341" r="1.03099" transform="rotate(-145.729 336.147 200.341)" fill="black" stroke="black"/>
</g>
<g id="Rotated Instance 9_2">
<circle id="Ellipse 18_23" cx="333.715" cy="197.198" r="1.03099" transform="rotate(-109.729 333.715 197.198)" fill="black" stroke="black"/>
</g>
<g id="Rotated Instance 10_2">
<circle id="Ellipse 18_24" cx="333.595" cy="193.225" r="1.03099" transform="rotate(-73.7291 333.595 193.225)" fill="black" stroke="black"/>
</g>
</g>
<circle id="Ellipse 17" cx="249.958" cy="232.077" r="0.915863" transform="rotate(-37.7291 249.958 232.077)" fill="#D3D3D3" stroke="#ABBCC9"/>
<path id="Vector 29" d="M362.825 158.626L357.457 162.779L364.039 171.286C364.791 172.258 366.231 172.323 366.968 171.34C367.628 170.461 368.314 169.399 368.588 168.489C369.115 166.735 368.907 165.455 368.736 164.848C368.661 164.579 368.512 164.342 368.341 164.121L364.228 158.805C363.89 158.368 363.262 158.288 362.825 158.626Z" fill="#C6D3DD" stroke="#ABBCC9"/>
<path id="Vector 30" d="M355.158 151.131L353.15 152.685C352.713 153.023 352.633 153.651 352.971 154.088L356.079 158.106C356.417 158.542 357.045 158.623 357.482 158.285L359.49 156.73L355.158 151.131Z" fill="#DC8B3F" stroke="#760909"/>
<path id="Vector 31" d="M125.082 322.876L120.928 317.508C120.59 317.071 119.962 316.991 119.525 317.329L117.797 318.666L121.413 324.335C121.729 324.831 122.403 324.948 122.868 324.589L125.082 322.876Z" fill="#DC8B3F" stroke="#760909"/>
<path id="Vector 32" d="M132.229 332.115L125.081 322.876L122.793 324.647C122.356 324.985 122.276 325.613 122.614 326.05L128.538 333.706C128.876 334.143 129.504 334.223 129.941 333.885L132.229 332.115Z" fill="#832035" stroke="#760909"/>
<path id="Vector 33" d="M134.433 334.963L132.229 332.114L129.94 333.885C129.504 334.223 129.423 334.851 129.761 335.288L131.353 337.346C131.691 337.782 132.319 337.863 132.756 337.525L134.254 336.366C134.691 336.028 134.771 335.4 134.433 334.963Z" fill="#F5F5F5" stroke="#760909"/>
<path id="Vector 34" d="M275.075 207.274L299.088 189.143C299.088 189.143 282.241 195.171 272.576 201.152C214.772 236.924 115.974 315.154 115.974 315.154L116.497 316.987C116.497 316.987 250.2 210.408 275.075 207.274Z" fill="white"/>
<path id="Vector 35" d="M302.03 191.789L302.067 189.523L276.031 209.667L276.274 211.717L302.03 191.789Z" fill="white"/>
<path id="Vector 36" d="M301.677 196.538L301.93 194.552L277.294 213.613L277.6 215.166L301.677 196.538Z" fill="white"/>
<path id="Vector 37" d="M302.442 200.421L302.696 198.434L278.34 217.279L278.646 218.832L302.442 200.421Z" fill="white"/>
<path id="Vector 38" d="M302.929 204.52L303.183 202.534L279.106 221.162L279.413 222.715L302.929 204.52Z" fill="white"/>
<path id="Vector 39" d="M302.855 209.052L303.109 207.066L280.152 224.828L280.459 226.381L302.855 209.052Z" fill="white"/>
<path id="Vector 40" d="M303.342 213.152L303.595 211.165L281.199 228.494L281.505 230.047L303.342 213.152Z" fill="white"/>
<path id="Vector 24" d="M250.588 223.535L244.051 228.592C243.614 228.93 243.534 229.558 243.872 229.995L244.776 231.164L252.895 224.882L251.99 223.714C251.652 223.277 251.024 223.197 250.588 223.535Z" fill="#D3D3D3" stroke="#ABBCC9"/>
</g>
</g>
</svg>
