<svg width="32" height="32" viewBox="0 0 32 32" fill="none" xmlns="http://www.w3.org/2000/svg">
<g clip-path="url(#clip0_426_167)">
<circle cx="18" cy="18" r="14" fill="white"/>
<path d="M11.6219 20.9022C11.6219 22.1743 10.5827 23.2134 9.3107 23.2134C8.03865 23.2134 6.99951 22.1743 6.99951 20.9022C6.99951 19.6302 8.03865 18.5911 9.3107 18.5911H11.6219V20.9022Z" fill="#E01E5A"/>
<path d="M12.7861 20.9022C12.7861 19.6302 13.8253 18.5911 15.0973 18.5911C16.3694 18.5911 17.4085 19.6302 17.4085 20.9022V26.6892C17.4085 27.9612 16.3694 29.0004 15.0973 29.0004C13.8253 29.0004 12.7861 27.9612 12.7861 26.6892V20.9022Z" fill="#E01E5A"/>
<path d="M15.0973 11.6224C13.8253 11.6224 12.7861 10.5832 12.7861 9.31119C12.7861 8.03914 13.8253 7 15.0973 7C16.3694 7 17.4085 8.03914 17.4085 9.31119V11.6224H15.0973Z" fill="#36C5F0"/>
<path d="M15.0976 12.7864C16.3697 12.7864 17.4088 13.8255 17.4088 15.0976C17.4088 16.3696 16.3697 17.4087 15.0976 17.4087H9.3107C8.03865 17.4087 6.99951 16.3696 6.99951 15.0976C6.99951 13.8255 8.03865 12.7864 9.3107 12.7864H15.0976Z" fill="#36C5F0"/>
<path d="M24.3774 15.0976C24.3774 13.8255 25.4166 12.7864 26.6886 12.7864C27.9607 12.7864 28.9998 13.8255 28.9998 15.0976C28.9998 16.3696 27.9607 17.4087 26.6886 17.4087H24.3774V15.0976Z" fill="#2EB67D"/>
<path d="M23.2132 15.0981C23.2132 16.3702 22.1741 17.4093 20.902 17.4093C19.63 17.4093 18.5908 16.3702 18.5908 15.0981V9.31119C18.5908 8.03914 19.63 7 20.902 7C22.1741 7 23.2132 8.03914 23.2132 9.31119V15.0981Z" fill="#2EB67D"/>
<path d="M20.902 24.3779C22.1741 24.3779 23.2132 25.4171 23.2132 26.6891C23.2132 27.9612 22.1741 29.0003 20.902 29.0003C19.63 29.0003 18.5908 27.9612 18.5908 26.6891V24.3779H20.902Z" fill="#ECB22E"/>
<path d="M20.902 23.2134C19.63 23.2134 18.5908 22.1743 18.5908 20.9022C18.5908 19.6302 19.63 18.5911 20.902 18.5911H26.6889C27.961 18.5911 29.0001 19.6302 29.0001 20.9022C29.0001 22.1743 27.961 23.2134 26.6889 23.2134H20.902Z" fill="#ECB22E"/>
<circle cx="8" cy="8" r="8" fill="#FF4D43"/>
<path d="M7.79958 2.83379C8.24684 2.83706 8.68757 2.91867 9.12178 3.07864C9.55598 3.23861 9.94774 3.49979 10.2971 3.86217C10.6496 4.22455 10.9304 4.71425 11.1393 5.33127C11.3516 5.94503 11.4593 6.70897 11.4626 7.62308C11.4626 8.50127 11.3744 9.28316 11.1981 9.96875C11.0218 10.6511 10.7688 11.2273 10.4391 11.6974C10.1126 12.1675 9.71595 12.525 9.2491 12.7698C8.78225 13.0147 8.25664 13.1371 7.67226 13.1371C7.07482 13.1371 6.54431 13.0196 6.08073 12.7845C5.61714 12.5495 5.24007 12.2246 4.94952 11.81C4.65896 11.3921 4.47777 10.9122 4.40595 10.3703H5.89954C5.99748 10.8012 6.19662 11.1506 6.49697 11.4183C6.80059 11.6827 7.19235 11.8149 7.67226 11.8149C8.40681 11.8149 8.97976 11.495 9.39111 10.8551C9.80246 10.212 10.0098 9.31418 10.013 8.16175H9.93468C9.76492 8.44251 9.55271 8.6841 9.29807 8.88651C9.04669 9.08892 8.76429 9.24562 8.45088 9.35662C8.13748 9.46762 7.80285 9.52312 7.447 9.52312C6.86915 9.52312 6.34353 9.3811 5.87016 9.09708C5.39678 8.81305 5.01971 8.42292 4.73895 7.92669C4.45818 7.43046 4.3178 6.86404 4.3178 6.22743C4.3178 5.59408 4.46145 5.01949 4.74874 4.50368C5.0393 3.98786 5.44412 3.57977 5.9632 3.27942C6.48555 2.97581 7.09768 2.82726 7.79958 2.83379ZM7.80448 4.10702C7.42251 4.10702 7.07809 4.20169 6.77121 4.39104C6.46759 4.57713 6.22764 4.83014 6.05135 5.15008C5.87505 5.46676 5.78691 5.81934 5.78691 6.20784C5.78691 6.59633 5.87179 6.94892 6.04155 7.26559C6.21458 7.579 6.44964 7.82875 6.74672 8.01484C7.04707 8.19766 7.38986 8.28907 7.7751 8.28907C8.06239 8.28907 8.33009 8.23357 8.57821 8.12257C8.82632 8.01157 9.04342 7.85813 9.22951 7.66225C9.4156 7.46311 9.56087 7.23784 9.66534 6.98646C9.76981 6.73508 9.82205 6.47064 9.82205 6.19315C9.82205 5.82424 9.7339 5.48145 9.55761 5.16477C9.38458 4.8481 9.14626 4.59345 8.84265 4.40084C8.53903 4.20496 8.19297 4.10702 7.80448 4.10702Z" fill="white"/>
</g>
<defs>
<clipPath id="clip0_426_167">
<rect width="32" height="32" fill="white"/>
</clipPath>
</defs>
</svg>
