<svg width="16" height="16" viewBox="0 0 16 16" fill="none" xmlns="http://www.w3.org/2000/svg">
<path d="M14 10C13.7348 10 13.4804 10.1054 13.2929 10.2929C13.1054 10.4804 13 10.7348 13 11V13H3V11C3 10.7348 2.89464 10.4804 2.70711 10.2929C2.51957 10.1054 2.26522 10 2 10C1.73478 10 1.48043 10.1054 1.29289 10.2929C1.10536 10.4804 1 10.7348 1 11V13C1 13.5304 1.21071 14.0391 1.58579 14.4142C1.96086 14.7893 2.46957 15 3 15H13C13.5304 15 14.0391 14.7893 14.4142 14.4142C14.7893 14.0391 15 13.5304 15 13V11C15 10.7348 14.8946 10.4804 14.7071 10.2929C14.5196 10.1054 14.2652 10 14 10Z" fill="#212121"/>
<path d="M7.29298 10.707C7.48051 10.8945 7.73482 10.9998 7.99998 10.9998C8.26514 10.9998 8.51945 10.8945 8.70698 10.707L12.707 6.707C12.8025 6.61475 12.8787 6.50441 12.9311 6.3824C12.9835 6.2604 13.0111 6.12918 13.0122 5.9964C13.0134 5.86362 12.9881 5.73194 12.9378 5.60905C12.8875 5.48615 12.8133 5.3745 12.7194 5.2806C12.6255 5.18671 12.5138 5.11246 12.3909 5.06218C12.268 5.0119 12.1364 4.9866 12.0036 4.98775C11.8708 4.9889 11.7396 5.01649 11.6176 5.0689C11.4956 5.12131 11.3852 5.19749 11.293 5.293L8.99998 7.586V2C8.99998 1.73478 8.89462 1.48043 8.70709 1.29289C8.51955 1.10536 8.2652 1 7.99998 1C7.73476 1 7.48041 1.10536 7.29287 1.29289C7.10534 1.48043 6.99998 1.73478 6.99998 2V7.586L4.70698 5.293C4.51838 5.11084 4.26578 5.01005 4.00358 5.01233C3.74138 5.0146 3.49057 5.11977 3.30516 5.30518C3.11975 5.49059 3.01458 5.7414 3.01231 6.0036C3.01003 6.2658 3.11082 6.5184 3.29298 6.707L7.29298 10.707Z" fill="#212121"/>
</svg>
