<svg width="313" height="458" viewBox="0 0 313 458" fill="none" xmlns="http://www.w3.org/2000/svg">
<path d="M8 418H23V442L8 458V418Z" fill="url(#paint0_linear_684_338)"/>
<rect x="313" y="458" width="8.00001" height="40" transform="rotate(-180 313 458)" fill="url(#paint1_linear_684_338)"/>
<rect y="418" width="8" height="40" fill="url(#paint2_linear_684_338)"/>
<path d="M290 418H305V458L290 442V418Z" fill="url(#paint3_linear_684_338)"/>
<rect x="10" y="146" width="293" height="136" fill="url(#paint4_linear_684_338)"/>
<rect x="8" y="146" width="15" height="136" fill="url(#paint5_linear_684_338)"/>
<rect x="313" y="282" width="8" height="136" transform="rotate(-180 313 282)" fill="url(#paint6_linear_684_338)"/>
<rect y="146" width="8" height="136" fill="url(#paint7_linear_684_338)"/>
<rect x="290" y="146" width="15" height="136" fill="url(#paint8_linear_684_338)"/>
<rect x="10" y="272" width="293" height="10" fill="url(#paint9_linear_684_338)"/>
<path d="M23 255H290L303 272H10L23 255Z" fill="url(#paint10_linear_684_338)"/>
<rect x="10" y="282" width="293" height="136" fill="url(#paint11_linear_684_338)"/>
<rect x="8" y="282" width="15" height="136" fill="url(#paint12_linear_684_338)"/>
<rect x="313" y="418" width="8" height="136" transform="rotate(-180 313 418)" fill="url(#paint13_linear_684_338)"/>
<rect y="282" width="8" height="136" fill="url(#paint14_linear_684_338)"/>
<rect x="290" y="282" width="15" height="136" fill="url(#paint15_linear_684_338)"/>
<rect x="10" y="408" width="293" height="10" fill="url(#paint16_linear_684_338)"/>
<path d="M23 391L290 391L303 408H10L23 391Z" fill="url(#paint17_linear_684_338)"/>
<rect x="10" y="10" width="293" height="136" fill="url(#paint18_linear_684_338)"/>
<rect x="8" y="10" width="15" height="136" fill="url(#paint19_linear_684_338)"/>
<rect x="290" y="10" width="15" height="136" fill="url(#paint20_linear_684_338)"/>
<rect x="313" y="146" width="8.00001" height="146" transform="rotate(-180 313 146)" fill="url(#paint21_linear_684_338)"/>
<rect width="8" height="146" fill="url(#paint22_linear_684_338)"/>
<rect x="10" y="136" width="293" height="10" fill="url(#paint23_linear_684_338)"/>
<path d="M23 119H290L303 136H10L23 119Z" fill="url(#paint24_linear_684_338)"/>
<rect x="8" width="297" height="10" fill="url(#paint25_linear_684_338)"/>
<defs>
<linearGradient id="paint0_linear_684_338" x1="23" y1="438" x2="8" y2="437.995" gradientUnits="userSpaceOnUse">
<stop stop-color="#754918"/>
<stop offset="1" stop-color="#A57949"/>
</linearGradient>
<linearGradient id="paint1_linear_684_338" x1="321" y1="478" x2="310.5" y2="478" gradientUnits="userSpaceOnUse">
<stop stop-color="#CAAE84"/>
<stop offset="0.195" stop-color="#E0CAAA"/>
<stop offset="1" stop-color="#D4B280"/>
</linearGradient>
<linearGradient id="paint2_linear_684_338" x1="8" y1="438" x2="-2.5" y2="438" gradientUnits="userSpaceOnUse">
<stop stop-color="#CAAE84"/>
<stop offset="0.195" stop-color="#E0CAAA"/>
<stop offset="1" stop-color="#D4B280"/>
</linearGradient>
<linearGradient id="paint3_linear_684_338" x1="305" y1="438" x2="290" y2="437.995" gradientUnits="userSpaceOnUse">
<stop stop-color="#A57949"/>
<stop offset="1" stop-color="#754918"/>
</linearGradient>
<linearGradient id="paint4_linear_684_338" x1="156.5" y1="282" x2="156.5" y2="146" gradientUnits="userSpaceOnUse">
<stop stop-color="#754918"/>
<stop offset="0.105" stop-color="#765531"/>
<stop offset="0.915" stop-color="#C3996B"/>
<stop offset="1" stop-color="#755633"/>
</linearGradient>
<linearGradient id="paint5_linear_684_338" x1="23" y1="214" x2="8" y2="213.999" gradientUnits="userSpaceOnUse">
<stop stop-color="#754918"/>
<stop offset="1" stop-color="#A57949"/>
</linearGradient>
<linearGradient id="paint6_linear_684_338" x1="321" y1="350" x2="310.5" y2="350" gradientUnits="userSpaceOnUse">
<stop stop-color="#CAAE84"/>
<stop offset="0.195" stop-color="#E0CAAA"/>
<stop offset="1" stop-color="#D4B280"/>
</linearGradient>
<linearGradient id="paint7_linear_684_338" x1="8" y1="214" x2="-2.5" y2="214" gradientUnits="userSpaceOnUse">
<stop stop-color="#CAAE84"/>
<stop offset="0.195" stop-color="#E0CAAA"/>
<stop offset="1" stop-color="#D4B280"/>
</linearGradient>
<linearGradient id="paint8_linear_684_338" x1="305" y1="214" x2="290" y2="213.999" gradientUnits="userSpaceOnUse">
<stop stop-color="#A57949"/>
<stop offset="1" stop-color="#754918"/>
</linearGradient>
<linearGradient id="paint9_linear_684_338" x1="156.5" y1="272" x2="156.5" y2="282" gradientUnits="userSpaceOnUse">
<stop stop-color="#FFF9F0"/>
<stop offset="0.235" stop-color="#E0CAAA"/>
<stop offset="1" stop-color="#D4B280"/>
</linearGradient>
<linearGradient id="paint10_linear_684_338" x1="156.5" y1="272" x2="156.5" y2="255" gradientUnits="userSpaceOnUse">
<stop stop-color="#A57949"/>
<stop offset="1" stop-color="#754918"/>
</linearGradient>
<linearGradient id="paint11_linear_684_338" x1="156.5" y1="418" x2="156.5" y2="282" gradientUnits="userSpaceOnUse">
<stop stop-color="#754918"/>
<stop offset="0.105" stop-color="#765531"/>
<stop offset="0.915" stop-color="#C3996B"/>
<stop offset="1" stop-color="#755633"/>
</linearGradient>
<linearGradient id="paint12_linear_684_338" x1="23" y1="350" x2="8" y2="349.999" gradientUnits="userSpaceOnUse">
<stop stop-color="#754918"/>
<stop offset="1" stop-color="#A57949"/>
</linearGradient>
<linearGradient id="paint13_linear_684_338" x1="321" y1="486" x2="310.5" y2="486" gradientUnits="userSpaceOnUse">
<stop stop-color="#CAAE84"/>
<stop offset="0.195" stop-color="#E0CAAA"/>
<stop offset="1" stop-color="#D4B280"/>
</linearGradient>
<linearGradient id="paint14_linear_684_338" x1="8" y1="350" x2="-2.5" y2="350" gradientUnits="userSpaceOnUse">
<stop stop-color="#CAAE84"/>
<stop offset="0.195" stop-color="#E0CAAA"/>
<stop offset="1" stop-color="#D4B280"/>
</linearGradient>
<linearGradient id="paint15_linear_684_338" x1="305" y1="350" x2="290" y2="349.999" gradientUnits="userSpaceOnUse">
<stop stop-color="#A57949"/>
<stop offset="1" stop-color="#754918"/>
</linearGradient>
<linearGradient id="paint16_linear_684_338" x1="156.5" y1="408" x2="156.5" y2="418" gradientUnits="userSpaceOnUse">
<stop stop-color="#FFF9F0"/>
<stop offset="0.235" stop-color="#E0CAAA"/>
<stop offset="1" stop-color="#D4B280"/>
</linearGradient>
<linearGradient id="paint17_linear_684_338" x1="156.5" y1="408" x2="156.5" y2="391" gradientUnits="userSpaceOnUse">
<stop stop-color="#A57949"/>
<stop offset="1" stop-color="#754918"/>
</linearGradient>
<linearGradient id="paint18_linear_684_338" x1="156.5" y1="146" x2="156.5" y2="10" gradientUnits="userSpaceOnUse">
<stop stop-color="#754918"/>
<stop offset="0.105" stop-color="#765531"/>
<stop offset="0.915" stop-color="#C3996B"/>
<stop offset="1" stop-color="#755633"/>
</linearGradient>
<linearGradient id="paint19_linear_684_338" x1="23" y1="78" x2="8" y2="77.9985" gradientUnits="userSpaceOnUse">
<stop stop-color="#754918"/>
<stop offset="1" stop-color="#A57949"/>
</linearGradient>
<linearGradient id="paint20_linear_684_338" x1="305" y1="78" x2="290" y2="77.9985" gradientUnits="userSpaceOnUse">
<stop stop-color="#A57949"/>
<stop offset="1" stop-color="#754918"/>
</linearGradient>
<linearGradient id="paint21_linear_684_338" x1="321" y1="219" x2="310.5" y2="219" gradientUnits="userSpaceOnUse">
<stop stop-color="#CAAE84"/>
<stop offset="0.195" stop-color="#E0CAAA"/>
<stop offset="1" stop-color="#D4B280"/>
</linearGradient>
<linearGradient id="paint22_linear_684_338" x1="8" y1="73" x2="-2.5" y2="73" gradientUnits="userSpaceOnUse">
<stop stop-color="#CAAE84"/>
<stop offset="0.195" stop-color="#E0CAAA"/>
<stop offset="1" stop-color="#D4B280"/>
</linearGradient>
<linearGradient id="paint23_linear_684_338" x1="156.5" y1="136" x2="156.5" y2="146" gradientUnits="userSpaceOnUse">
<stop stop-color="#FFF9F0"/>
<stop offset="0.235" stop-color="#E0CAAA"/>
<stop offset="1" stop-color="#D4B280"/>
</linearGradient>
<linearGradient id="paint24_linear_684_338" x1="156.5" y1="136" x2="156.5" y2="119" gradientUnits="userSpaceOnUse">
<stop stop-color="#A57949"/>
<stop offset="1" stop-color="#754918"/>
</linearGradient>
<linearGradient id="paint25_linear_684_338" x1="156" y1="10" x2="156" y2="-9.0437e-08" gradientUnits="userSpaceOnUse">
<stop stop-color="#CAAE84"/>
<stop offset="0.81" stop-color="#CAAE84"/>
<stop offset="1" stop-color="#D4C4AD"/>
</linearGradient>
</defs>
</svg>
