<svg width="190" height="146" viewBox="0 0 190 146" fill="none" xmlns="http://www.w3.org/2000/svg">
<rect x="10" y="10" width="157" height="136" fill="url(#paint0_linear_681_150)"/>
<rect x="8" y="10" width="15" height="136" fill="url(#paint1_linear_681_150)"/>
<rect x="167" y="10" width="15" height="136" fill="url(#paint2_linear_681_150)"/>
<rect x="190" y="146" width="8.00001" height="146" transform="rotate(-180 190 146)" fill="url(#paint3_linear_681_150)"/>
<rect width="8" height="146" fill="url(#paint4_linear_681_150)"/>
<rect x="10" y="136" width="170" height="10" fill="url(#paint5_linear_681_150)"/>
<path d="M23 116H167L180 136H10L23 116Z" fill="url(#paint6_linear_681_150)"/>
<rect x="8" width="174" height="10" fill="url(#paint7_linear_681_150)"/>
<defs>
<linearGradient id="paint0_linear_681_150" x1="88.5" y1="146" x2="88.5007" y2="10" gradientUnits="userSpaceOnUse">
<stop stop-color="#754918"/>
<stop offset="0.105" stop-color="#765531"/>
<stop offset="0.915" stop-color="#C3996B"/>
<stop offset="1" stop-color="#755633"/>
</linearGradient>
<linearGradient id="paint1_linear_681_150" x1="23" y1="78" x2="8" y2="77.9985" gradientUnits="userSpaceOnUse">
<stop stop-color="#754918"/>
<stop offset="1" stop-color="#A57949"/>
</linearGradient>
<linearGradient id="paint2_linear_681_150" x1="182" y1="78" x2="167" y2="77.9985" gradientUnits="userSpaceOnUse">
<stop stop-color="#A57949"/>
<stop offset="1" stop-color="#754918"/>
</linearGradient>
<linearGradient id="paint3_linear_681_150" x1="198" y1="219" x2="187.5" y2="219" gradientUnits="userSpaceOnUse">
<stop stop-color="#CAAE84"/>
<stop offset="0.195" stop-color="#E0CAAA"/>
<stop offset="1" stop-color="#D4B280"/>
</linearGradient>
<linearGradient id="paint4_linear_681_150" x1="8" y1="73" x2="-2.5" y2="73" gradientUnits="userSpaceOnUse">
<stop stop-color="#CAAE84"/>
<stop offset="0.195" stop-color="#E0CAAA"/>
<stop offset="1" stop-color="#D4B280"/>
</linearGradient>
<linearGradient id="paint5_linear_681_150" x1="95" y1="136" x2="95" y2="146" gradientUnits="userSpaceOnUse">
<stop stop-color="#FFF9F0"/>
<stop offset="0.235" stop-color="#E0CAAA"/>
<stop offset="1" stop-color="#D4B280"/>
</linearGradient>
<linearGradient id="paint6_linear_681_150" x1="156.5" y1="136" x2="156.5" y2="119" gradientUnits="userSpaceOnUse">
<stop stop-color="#A57949"/>
<stop offset="1" stop-color="#754918"/>
</linearGradient>
<linearGradient id="paint7_linear_681_150" x1="94.7071" y1="10" x2="94.7071" y2="-9.04311e-08" gradientUnits="userSpaceOnUse">
<stop stop-color="#CAAE84"/>
<stop offset="0.81" stop-color="#CAAE84"/>
<stop offset="1" stop-color="#D4C4AD"/>
</linearGradient>
</defs>
</svg>
