<svg aria-hidden="true" data-automation-testing="extIconify24:assignment-2" font-size="24px" height="1em" role="img" viewbox="0 0 24 24" width="1em" xmlns="http://www.w3.org/2000/svg" xmlns:xlink="http://www.w3.org/1999/xlink"><g fill="currentColor"><path d="M15.505 9.094h-4.62v.808h4.62v-.808Zm-3.837 6.302h-.782v.807h.783v-.807Zm-2.505-3.798-1.097 1.05-.548-.565-.548.566.548.565.548.566.549-.566 1.018-1.13-.47-.486Zm3.993.647h-2.27v.808h2.27v-.808Zm3.681 1.05a4.089 4.089 0 00-4.072 4.072 4.089 4.089 0 004.072 4.072 4.089 4.089 0 004.071-4.072c0-2.236-1.756-4.072-4.072-4.072Zm0 7.185a3.203 3.203 0 01-3.194-3.193 3.203 3.203 0 013.194-3.194 3.203 3.203 0 013.193 3.194 3.203 3.203 0 01-3.194 3.194Zm-9.319-5.246-.548.566.548.565.548.566.549-.566 1.018-1.131-.47-.485-1.097 1.05-.548-.565Zm.548-4.605.549-.566 1.018-1.13-.47-.485-1.097 1.05-.548-.566-.548.566.548.565.548.566Z"></path><path d="M17.228 16.93v-1.858h-.94v2.747h2.663v-.888h-1.723Z"></path><path d="M6.03 19.435c-.391 0-.626-.323-.626-.646V5.862c0-.404.313-.646.626-.646h1.958v.242c0 .081 0 .243.078.324.079.161.314.323.548.323h5.56c.313 0 .548-.243.548-.485v-.404h1.958c.391 0 .704.323.704.646v6.302l.862.242V5.54c0-.727-.548-1.212-1.253-1.212H14.8v-.242c0-.323-.235-.646-.627-.646h-5.56a.627.627 0 00-.626.646v.242h-2.27c-.784-.08-1.254.404-1.254 1.131v13.573c0 .727.548 1.293 1.332 1.293h6.734l-.548-.889H6.03Z"></path></g></svg>