<svg aria-hidden="true" data-automation-testing="extIconify24:bell-line" font-size="24px" height="1em" role="img" viewbox="0 0 24 24" width="1em" xmlns="http://www.w3.org/2000/svg" xmlns:xlink="http://www.w3.org/1999/xlink"><path d="M11.933 4v1.133m0 0c-5.666 0-5.666 4.534-5.666 4.534s0 0 0 0V14.2c0 .421-.314 1-.708 1.56-.512.729-.036 1.84.855 1.84H7.4m4.533-12.467c3.217 0 4.608 1.461 5.21 2.725m.457 2.392v3.95c0 .421.314 1 .707 1.56.513.729.036 1.84-.854 1.84H14.2m0 0h-3.533c-.553 0-1.001.462-.79.972.254.615.815 1.295 2.056 1.295 2.267 0 2.267-2.267 2.267-2.267ZM21 4l-3.858 3.858M4 21l3.4-3.4m9.742-9.742L7.4 17.6" fill="none" stroke="currentColor" stroke-linecap="round" stroke-linejoin="round"></path></svg>