<svg aria-hidden="true" data-automation-testing="extIconify24:device-phone" font-size="24px" height="1em" role="img" viewbox="0 0 24 25" width="0.96em" xmlns="http://www.w3.org/2000/svg" xmlns:xlink="http://www.w3.org/1999/xlink"><path d="M10 4.14H8a1 1 0 00-1 1v14a1 1 0 001 1h7a1 1 0 001-1v-14a1 1 0 00-1-1h-2m-3 0v1h3v-1m-3 0h3m-1 13.5v0a.5.5 0 00-.5-.5v0a.5.5 0 00-.5.5v0a.5.5 0 00.5.5v0a.5.5 0 00.5-.5Z" fill="none" stroke="currentColor" stroke-linecap="round" stroke-linejoin="round"></path></svg>