<svg aria-hidden="true" data-automation-testing="extIconify24:drag-handle" font-size="24px" height="1em" role="img" viewbox="0 0 24 25" width="0.96em" xmlns="http://www.w3.org/2000/svg" xmlns:xlink="http://www.w3.org/1999/xlink"><path d="M13 16.64a.5.5 0 101 0 .5.5 0 00-1 0Zm-3 0a.5.5 0 101 0 .5.5 0 00-1 0Zm3-3a.5.5 0 101 0 .5.5 0 00-1 0Zm-3 0a.5.5 0 101 0 .5.5 0 00-1 0Zm3-3a.5.5 0 101 0 .5.5 0 00-1 0Zm-3 0a.5.5 0 101 0 .5.5 0 00-1 0Zm3-3a.5.5 0 101 0 .5.5 0 00-1 0Zm-3 0a.5.5 0 101 0 .5.5 0 00-1 0Z" fill="none" stroke="currentColor" stroke-linecap="round" stroke-linejoin="round"></path></svg>