<svg aria-hidden="true" data-automation-testing="extIconify24:list" font-size="24px" height="1em" role="img" viewbox="0 0 24 24" width="1em" xmlns="http://www.w3.org/2000/svg" xmlns:xlink="http://www.w3.org/1999/xlink"><path d="M11 7h8m-8 5h8m-8 5h8M8 18v0a1.414 1.414 0 01-2 0v0a1.414 1.414 0 010-2v0a1.414 1.414 0 012 0v0a1.414 1.414 0 010 2Zm0-5v0a1.414 1.414 0 01-2 0v0a1.414 1.414 0 010-2v0a1.414 1.414 0 012 0v0a1.414 1.414 0 010 2Zm0-5v0a1.414 1.414 0 01-2 0v0a1.414 1.414 0 010-2v0a1.414 1.414 0 012 0v0a1.414 1.414 0 010 2Z" fill="none" stroke="currentColor" stroke-linecap="round"></path></svg>