<svg aria-hidden="true" data-automation-testing="extIconify24:microphone-line" font-size="24px" height="1em" role="img" viewbox="0 0 24 24" width="1em" xmlns="http://www.w3.org/2000/svg" xmlns:xlink="http://www.w3.org/1999/xlink"><g fill="none"><path d="M12.078 17.549V20.8M6 18.4l12-12" stroke="currentColor" stroke-linecap="round"></path><path clip-rule="evenodd" d="M9.266 17.256a5.378 5.378 0 008.19-4.585.5.5 0 00-1 0 4.378 4.378 0 01-6.458 3.853l-.732.732Zm-1.262-2.98A4.366 4.366 0 017.7 12.67a.5.5 0 00-1 0c0 .848.196 1.65.546 2.363l.758-.759Z" fill="currentColor" fill-rule="evenodd"></path><path clip-rule="evenodd" d="M14.329 12.192v.479a2.252 2.252 0 01-2.688 2.21l-.8.799a3.252 3.252 0 004.487-3.009v-1.479l-.999 1Zm-4.503.26v-5.2a2.252 2.252 0 014.503 0v.698l.987-.988a3.252 3.252 0 00-6.49.29v5.419c0 .242.026.478.076.705l.924-.923Z" fill="currentColor" fill-rule="evenodd"></path></g></svg>