<svg aria-hidden="true" data-automation-testing="extIconify24:organization" font-size="24px" height="1em" role="img" viewbox="0 0 24 24" width="1em" xmlns="http://www.w3.org/2000/svg" xmlns:xlink="http://www.w3.org/1999/xlink"><path d="M12 9h2a1 1 0 001-1V6a1 1 0 00-1-1h-4a1 1 0 00-1 1v2a1 1 0 001 1h2Zm0 0v3m0 0H7a1 1 0 00-1 1v2m6-3h5a1 1 0 011 1v2m-6-3v3m0 0h-1a1 1 0 00-1 1v1a1 1 0 001 1h2a1 1 0 001-1v-1a1 1 0 00-1-1h-1Zm-6 0h1a1 1 0 011 1v1a1 1 0 01-1 1H5a1 1 0 01-1-1v-1a1 1 0 011-1h1Zm12 0h-1a1 1 0 00-1 1v1a1 1 0 001 1h2a1 1 0 001-1v-1a1 1 0 00-1-1h-1Z" fill="none" stroke="currentColor" stroke-linecap="round" stroke-linejoin="round"></path></svg>