<svg aria-hidden="true" data-automation-testing="extIconify24:phone-tablet" font-size="24px" height="1em" role="img" viewbox="0 0 24 24" width="1em" xmlns="http://www.w3.org/2000/svg" xmlns:xlink="http://www.w3.org/1999/xlink"><g fill="none"><path d="M22.166 19V5a1 1 0 00-1-1h-8a1 1 0 00-1 1v14a1 1 0 001 1h8a1 1 0 001-1Z" stroke="currentColor" stroke-linecap="round" stroke-linejoin="round"></path><circle cx="17.166" cy="18" fill="currentColor" r="1"></circle><circle cx="6.167" cy="18" fill="currentColor" r="1"></circle><path d="M10.166 19.333V6.667A.667.667 0 009.5 6H2.833a.667.667 0 00-.667.667v12.666c0 .369.299.667.667.667H9.5a.667.667 0 00.666-.667Z" stroke="currentColor" stroke-linecap="round" stroke-linejoin="round"></path><path d="M7.881 7H4.452V6h3.429v1Z" stroke="currentColor" stroke-linecap="round" stroke-linejoin="round"></path></g></svg>