<svg aria-hidden="true" data-automation-testing="extIconify24:phone-line" font-size="24px" height="1em" role="img" viewbox="0 0 24 24" width="1em" xmlns="http://www.w3.org/2000/svg" xmlns:xlink="http://www.w3.org/1999/xlink"><path d="M9.187 15C4.88 10.693 4.865 7.612 5.062 6.479c.053-.308.303-.524.606-.6l2.74-.684a1 1 0 011.138.522l1.319 2.638a1 1 0 01-.188 1.155l-.49.49s0 0 0 0-1 1 1 3M19 4 5 21m8-6.809c.791.205 1.187-.191 1.187-.191s0 0 0 0l.49-.49a1 1 0 011.155-.188l2.637 1.32a1 1 0 01.523 1.136l-.685 2.74c-.076.304-.29.553-.598.607-.968.168-3.353.182-6.709-2.494" fill="none" stroke="currentColor" stroke-linecap="round" stroke-linejoin="round"></path></svg>