<svg aria-hidden="true" data-automation-testing="extIconify24:pin" font-size="24px" height="1em" role="img" viewbox="0 0 24 24" width="1em" xmlns="http://www.w3.org/2000/svg" xmlns:xlink="http://www.w3.org/1999/xlink"><path d="m9 14-3.707 3.707a1 1 0 00-.293.707V19h.586a1 1 0 00.707-.293L10 15m-1-1-2.293-2.293a1 1 0 010-1.414l.586-.586a1 1 0 011.414 0L10 11m-1 3 1 1m0-4 3-3m-3 3 3 3m0-6-.293-.293a1 1 0 010-1.414l.586-.586a1 1 0 011.414 0l3.586 3.586a1 1 0 010 1.414l-.586.586a1 1 0 01-1.414 0L16 11m-3-3 3 3m-6 4 2.293 2.293a1 1 0 001.414 0l.586-.586a1 1 0 000-1.414L13 14m3-3-3 3" fill="none" stroke="currentColor" stroke-linecap="round" stroke-linejoin="round"></path></svg>