<svg aria-hidden="true" data-automation-testing="extIconify24:rte-bulleted-list" font-size="24px" height="1em" role="img" viewbox="0 0 24 24" width="1em" xmlns="http://www.w3.org/2000/svg" xmlns:xlink="http://www.w3.org/1999/xlink"><g fill="none"><path d="M5 16a1 1 0 102 0 1 1 0 00-2 0Zm0-4a1 1 0 102 0 1 1 0 00-2 0Zm0-4a1 1 0 102 0 1 1 0 00-2 0Z" fill="currentColor"></path><path d="M9 12h10M9 8h10M9 16h10M6 17v0a1 1 0 001-1v0a1 1 0 00-1-1v0a1 1 0 00-1 1v0a1 1 0 001 1Zm0-4v0a1 1 0 001-1v0a1 1 0 00-1-1v0a1 1 0 00-1 1v0a1 1 0 001 1Zm0-4v0a1 1 0 001-1v0a1 1 0 00-1-1v0a1 1 0 00-1 1v0a1 1 0 001 1Z" stroke="currentColor" stroke-linecap="round" stroke-linejoin="round"></path></g></svg>