<svg aria-hidden="true" data-automation-testing="extIconify24:settings-1" font-size="24px" height="1em" role="img" viewbox="0 0 24 24" width="1em" xmlns="http://www.w3.org/2000/svg" xmlns:xlink="http://www.w3.org/1999/xlink"><g fill="none" stroke="currentColor"><path d="m17 18.315 1.349-1.357a.668.668 0 00.056-.875l-.924-1.212c.174-.332.317-.678.428-1.034l1.511-.198a.666.666 0 00.58-.661v-1.956a.666.666 0 00-.58-.66l-1.52-.2a6.229 6.229 0 00-.447-1.06l.924-1.228a.666.666 0 00-.062-.873l-1.357-1.349a.668.668 0 00-.874-.059l-1.237.943a6.166 6.166 0 00-1.02-.42l-.188-1.53A.666.666 0 0012.978 4h-1.956a.666.666 0 00-.66.58l-.2 1.537c-.367.114-.72.26-1.059.44l-1.226-.933a.667.667 0 00-.876.061L5.653 7.042a.668.668 0 00-.053.881l.933 1.192c-.182.338-.329.69-.444 1.054l-1.506.192a.666.666 0 00-.583.661v1.956c0 .337.25.62.584.661l1.495.186c.113.368.262.725.444 1.068l-.906 1.241a.667.667 0 00.068.867l1.358 1.347c.236.234.607.26.872.06l1.22-.922c.331.173.676.315 1.031.425l.195 1.508a.666.666 0 00.661.581h1.956a.666.666 0 00.66-.579l.202-1.516a6.044 6.044 0 001.05-.436l1.241.913a.668.668 0 00.869-.067Z"></path><circle cx="12" cy="12" r="3"></circle></g></svg>