<svg aria-hidden="true" data-automation-testing="extIconify24:staff-rooms" font-size="24px" height="1em" role="img" viewbox="0 0 24 24" width="1em" xmlns="http://www.w3.org/2000/svg" xmlns:xlink="http://www.w3.org/1999/xlink"><path d="m18.918 13.875-2.435-.615a.474.474 0 01-.352-.373l-.144-.735a.265.265 0 01.137-.281 2.87 2.87 0 001.04-.976 2.911 2.911 0 00.455-1.56V8.01a2.987 2.987 0 00-.786-2.068A2.923 2.923 0 0014.85 5c-.496-.015-.987.1-1.425.336a2.865 2.865 0 00-1.073 1.006c.628.73.976 1.665.981 2.633a4.114 4.114 0 00.556 2.366 1.457 1.457 0 01.173 1.122 1.09 1.09 0 01-.208.454 1.436 1.436 0 01-.373.306c-.043.027-.035.092.013.106.497.145.95.524 1.262.941.311.418.48.926.482 1.448v1.8a1.443 1.443 0 01-.088.48h4.374a.481.481 0 00.476-.48v-2.243c0-.322-.107-.635-.303-.889a1.426 1.426 0 00-.779-.512Zm-6.43.455-2.055-.592a.476.476 0 01-.321-.313l-.05-.152c-.054-.168.079-.339.256-.34a4.674 4.674 0 001.818-.396.482.482 0 00.25-.5.49.49 0 00-.067-.186 5.082 5.082 0 01-.7-2.872 2.997 2.997 0 00-.778-2.059 2.933 2.933 0 00-1.966-.953 2.83 2.83 0 00-2.093.803 2.89 2.89 0 00-.877 2.083 5.216 5.216 0 01-.701 3 .488.488 0 00.184.684 4.674 4.674 0 001.819.395c.176.002.309.172.255.34l-.05.155a.482.482 0 01-.322.312l-2.054.592a1.428 1.428 0 00-.748.519c-.187.25-.288.556-.288.87v1.799a.481.481 0 00.476.481h8.572a.481.481 0 00.476-.481v-1.8c0-.313-.101-.619-.288-.87a1.428 1.428 0 00-.748-.518Z" fill="none" stroke="currentColor"></path></svg>