<svg aria-hidden="true" data-automation-testing="extIconify24:tags" font-size="24px" height="1em" role="img" viewbox="0 0 24 24" width="1em" xmlns="http://www.w3.org/2000/svg" xmlns:xlink="http://www.w3.org/1999/xlink"><g fill="none"><path d="m11.629 18.902-6.055-6.2a1.351 1.351 0 01-.385-.922l-.072-4.33a1.351 1.351 0 011.406-1.37l4.325.175c.345.014.671.159.912.406l6.055 6.2a1.35 1.35 0 01-.022 1.91l-4.254 4.154a1.351 1.351 0 01-1.91-.022Z" stroke="currentColor" stroke-linecap="round"></path><path d="m13.412 6.087 6.166 6.166a2.162 2.162 0 010 3.057l-5.37 5.37" stroke="currentColor" stroke-linecap="round"></path><circle cx=".884" cy=".884" fill="currentColor" r=".884" transform="rotate(138.225 3.12 6.697) skewX(.001)"></circle></g></svg>