<svg aria-hidden="true" data-automation-testing="extIconify24:user-impersonate" font-size="24px" height="1em" role="img" viewbox="0 0 24 24" width="1em" xmlns="http://www.w3.org/2000/svg" xmlns:xlink="http://www.w3.org/1999/xlink"><path d="M15 18h6m0 0-2-2m2 2-2 2m-1.517-6a3.862 3.862 0 00-1.107-.848c-.234-.114-.506-.087-.745.014-.67.285-2.155.834-3.631.834s-2.96-.549-3.63-.834c-.24-.101-.512-.129-.746-.014C5.48 14.202 4.108 18.054 6 19c2 1 6 1 6 1s0 0 0 0 .87 0 2-.101M12 4a4 4 0 100 8 4 4 0 000-8Z" fill="none" stroke="currentColor" stroke-linecap="round" stroke-linejoin="round"></path></svg>