<svg aria-hidden="true" data-automation-testing="extIconify24:user-shield" font-size="24px" height="1em" role="img" viewbox="0 0 24 24" width="1em" xmlns="http://www.w3.org/2000/svg" xmlns:xlink="http://www.w3.org/1999/xlink"><path d="M17 17c-1.075 1.102-2.897 2-5 2s-3.925-.898-5-2m10 0c1.534-1.572 1.927-3.558 1.99-3.936a.79.79 0 00.01-.13V7.66a1 1 0 00-.606-.919l-6-2.571a1 1 0 00-.788 0l-6 2.571A1 1 0 005 7.66v5.274c0 .044.003.087.01.13.063.378.456 2.364 1.99 3.936m10 0s-.75-1.5-1.601-1.902c-.24-.113-.504.008-.725.156-.441.296-1.333.746-2.674.746s-2.233-.45-2.674-.746c-.22-.148-.485-.27-.725-.156C7.751 15.499 7 17 7 17m5-9a3 3 0 100 6 3 3 0 000-6Z" fill="none" stroke="currentColor" stroke-linecap="round" stroke-linejoin="round"></path></svg>