<svg aria-hidden="true" data-automation-testing="extIconify24:volume-min" font-size="24px" height="1em" role="img" viewbox="0 0 24 24" width="1em" xmlns="http://www.w3.org/2000/svg" xmlns:xlink="http://www.w3.org/1999/xlink"><mask fill="#fff" id="iconifyVue41"><path clip-rule="evenodd" d="M7.188 16.701a1 1 0 00-.605-.204H2a1 1 0 01-1-1v-7a1 1 0 011-1h4.583a1 1 0 00.605-.204l3.404-2.587a1 1 0 011.605.796v12.99a1 1 0 01-1.605.797L7.188 16.7Z" fill-rule="evenodd"></path></mask><g fill="none"><path d="m7.188 16.701-.605.796.605-.796Zm-.605-1.204H2v2h4.583v-2Zm-4.583 0v-7H0v7h2Zm0-7h4.583v-2H2v2Zm5.793-.408 3.404-2.587-1.21-1.592-3.404 2.587 1.21 1.592Zm3.404-2.587v12.99h2V5.503h-2Zm0 12.99-3.404-2.587-1.21 1.592 3.404 2.588 1.21-1.592Zm0 0-1.21 1.593c1.317 1 3.21.062 3.21-1.592h-2Zm0-12.99h2c0-1.654-1.893-2.593-3.21-1.592l1.21 1.592ZM6.583 8.497a2 2 0 001.21-.408l-1.21-1.592v2ZM2 8.497v-2a2 2 0 00-2 2h2Zm0 7H0a2 2 0 002 2v-2Zm4.583 2 1.21-1.592a2 2 0 00-1.21-.408v2Z" fill="currentColor" mask="url(#iconifyVue41)"></path><path d="M14 14a2 2 0 100-4" stroke="currentColor" stroke-linecap="round"></path></g></svg>