<svg aria-hidden="true" data-automation-testing="extIconify24:warning-triangle-1" font-size="24px" height="1em" role="img" viewbox="0 0 24 24" width="1em" xmlns="http://www.w3.org/2000/svg" xmlns:xlink="http://www.w3.org/1999/xlink"><g fill="none"><path d="m4.58 17.523 6.828-12.671-.44-.237.44.237a.674.674 0 011.184 0l6.827 12.671a.665.665 0 01-.592.977H5.173a.665.665 0 01-.592-.977Z" stroke="currentColor"></path><path clip-rule="evenodd" d="M12 8.5a.5.5 0 01.5.5v4.375a.5.5 0 01-1 0V9a.5.5 0 01.5-.5Zm0 6.125a.5.5 0 01.5.5V16a.5.5 0 01-1 0v-.875a.5.5 0 01.5-.5Z" fill="currentColor" fill-rule="evenodd"></path></g></svg>