<svg xmlns="http://www.w3.org/2000/svg" viewBox="0 0 32 32" width="32" height="32"><title>scroll horitontal</title><g class="nc-icon-wrapper" stroke-linecap="square" stroke-linejoin="miter" stroke-width="1" transform="translate(0.5 0.5)" fill="#8a8a8a" stroke="#8a8a8a"><line data-cap="butt" data-color="color-2" fill="none" stroke-miterlimit="10" x1="26" y1="9" x2="17" y2="9" stroke-linecap="butt"/> <polyline data-color="color-2" fill="none" stroke-miterlimit="10" points=" 23,6 26,9 23,12 "/> <line data-cap="butt" data-color="color-2" fill="none" stroke-miterlimit="10" x1="4" y1="9" x2="13" y2="9" stroke-linecap="butt"/> <polyline data-color="color-2" fill="none" stroke-miterlimit="10" points=" 7,6 4,9 7,12 "/> <line fill="none" stroke="#8a8a8a" stroke-miterlimit="10" x1="13" y1="16.99999" x2="13" y2="19.99999"/> <path fill="none" stroke="#8a8a8a" stroke-miterlimit="10" d="M25.12761,15.47774 L17,13.99999V6c0-1.10457-0.89543-2-2-2h0c-1.10457,0-2,0.89543-2,2v8.39831v2.60168h-2c-1.10457,0-2,0.89543-2,2v2.89532 c0,1.36246,0.4637,2.68436,1.31483,3.74826L13,29h13l1.55607-10.11448C27.80318,17.27935,26.72647,15.76844,25.12761,15.47774z"/></g></svg>